<svg width="28" height="29" viewBox="0 0 28 29" fill="none" xmlns="http://www.w3.org/2000/svg">
<g filter="url(#filter0_d_590_35100)">
<path d="M6.89911 14.0247C7.53947 14.0247 8.05886 14.521 8.05909 15.1329V22.8917C8.05906 23.5038 7.53959 24 6.89911 24H5.15998C4.5195 24 4.00003 23.5038 4 22.8917V15.1329C4.00023 14.521 4.51962 14.0247 5.15998 14.0247H6.89911ZM12.7559 7.375C14.1473 7.37505 14.4956 7.92902 14.7855 8.76013C15.0926 9.6407 14.7855 11.7528 14.7855 12.6395H17.395C18.5478 12.6396 20.8461 13.1325 20.8741 15.097C20.8744 15.12 20.8809 15.143 20.8945 15.162C21.3624 15.8104 21.7228 17.0619 20.9013 18.1459C20.8843 18.1685 20.8756 18.1959 20.8783 18.2236C20.9677 19.0649 20.9171 20.8178 20.0309 21.4869C20.0137 21.5 19.9997 21.5161 19.9918 21.5356C19.6906 22.2837 18.8289 23.7231 17.6846 23.7231H11.5959C10.7262 23.7231 8.98655 22.6147 8.9864 21.7834V15.4106C8.9864 15.1336 9.10265 14.5241 9.56639 14.3024C10.1462 14.0253 11.3062 11.2546 11.3064 10.1461V9.3147C11.2097 8.66817 11.3642 7.375 12.7559 7.375ZM20.5217 3C20.5958 3.00003 20.6687 3.02132 20.7399 3.06409C20.8111 3.10689 20.8632 3.17164 20.897 3.2572L21.6587 5.16187L23.6297 5.34387C23.7243 5.35815 23.7989 5.38973 23.853 5.43958C23.9072 5.48951 23.9474 5.55422 23.9745 5.63269C24.0015 5.71115 24.0074 5.79149 23.9906 5.87366C23.9738 5.95573 23.9311 6.02855 23.8632 6.09241L22.3704 7.4519L22.817 9.47449C22.8372 9.56706 22.8304 9.65077 22.7966 9.72571C22.7628 9.80064 22.7156 9.86323 22.6548 9.91284C22.5939 9.9625 22.5221 9.99087 22.4408 9.99829C22.3597 10.0056 22.2817 9.98437 22.2073 9.9342L20.5217 8.86438L18.8352 9.9342C18.7608 9.98409 18.6829 10.0054 18.6017 9.99829C18.5205 9.99113 18.4494 9.96274 18.3885 9.91284C18.3276 9.86291 18.2806 9.80044 18.2467 9.72571C18.2129 9.651 18.2061 9.56743 18.2263 9.47449L18.673 7.4519L17.1802 6.09241C17.1124 6.0282 17.0696 5.95499 17.0528 5.8728C17.0361 5.7908 17.0413 5.71071 17.0681 5.63269C17.0949 5.5545 17.1359 5.4898 17.1903 5.43958C17.2448 5.38951 17.3193 5.35783 17.4137 5.34387L19.3838 5.16187L20.1455 3.2572C20.1794 3.17159 20.2322 3.10689 20.3034 3.06409C20.3746 3.02133 20.4475 3 20.5217 3Z" fill="url(#paint0_linear_590_35100)"/>
</g>
<defs>
<filter id="filter0_d_590_35100" x="0" y="0" width="28" height="29" filterUnits="userSpaceOnUse" color-interpolation-filters="sRGB">
<feFlood flood-opacity="0" result="BackgroundImageFix"/>
<feColorMatrix in="SourceAlpha" type="matrix" values="0 0 0 0 0 0 0 0 0 0 0 0 0 0 0 0 0 0 127 0" result="hardAlpha"/>
<feOffset dy="1"/>
<feGaussianBlur stdDeviation="2"/>
<feComposite in2="hardAlpha" operator="out"/>
<feColorMatrix type="matrix" values="0 0 0 0 0.223529 0 0 0 0 0.564706 0 0 0 0 0.552941 0 0 0 0.25 0"/>
<feBlend mode="normal" in2="BackgroundImageFix" result="effect1_dropShadow_590_35100"/>
<feBlend mode="normal" in="SourceGraphic" in2="effect1_dropShadow_590_35100" result="shape"/>
</filter>
<linearGradient id="paint0_linear_590_35100" x1="4.66762" y1="28.7895" x2="20.9233" y2="0.523963" gradientUnits="userSpaceOnUse">
<stop offset="0.144231" stop-color="#2A897F"/>
<stop offset="0.5" stop-color="#5ABA98"/>
<stop offset="0.951923" stop-color="#32B0A0"/>
</linearGradient>
</defs>
</svg>
